<svg width="497" height="390" viewBox="0 0 497 390" fill="none" xmlns="http://www.w3.org/2000/svg">
    <path
        d="M304.471 297.502C304.471 308.822 303.035 319.043 300.163 328.166C297.291 337.12 293.489 345.061 288.759 351.987C284.028 358.745 278.538 364.574 272.287 369.473C266.036 374.204 259.447 378.089 252.52 381.13C245.762 384.171 238.835 386.452 231.74 387.973C224.813 389.324 218.224 390 211.973 390H93.1201C81.8008 390 71.6641 388.564 62.71 385.692C53.7559 382.82 45.8154 379.019 38.8887 374.288C32.1309 369.389 26.3022 363.813 21.4028 357.562C16.6724 351.312 12.7866 344.807 9.74561 338.049C6.70459 331.123 4.42383 324.196 2.90332 317.269C1.55176 310.173 0.875977 303.584 0.875977 297.502V208.299C0.875977 191.405 3.91699 177.129 9.99902 165.472C16.25 153.646 23.937 144.1 33.0601 136.835C42.3521 129.402 52.4043 124.08 63.2168 120.87C74.0293 117.66 83.9971 116.055 93.1201 116.055H211.973V181.944H93.627C84.8418 181.944 78.1685 184.225 73.6069 188.786C69.0454 193.179 66.7646 199.683 66.7646 208.299V296.996C66.7646 305.95 68.9609 312.708 73.3535 317.269C77.915 321.831 84.5039 324.111 93.1201 324.111H211.973C220.927 324.111 227.601 321.831 231.993 317.269C236.386 312.708 238.582 306.119 238.582 297.502V0.243164H304.471V297.502ZM496.663 125.77H354.039V90.1896H496.663V125.77Z"
        fill="#FFFFFF" />
    <g clipPath="url(#clip0_0_1)">
        <path
            d="M186.656 221.169C180.172 218.193 173.33 216.069 166.3 214.85C166.236 214.839 166.171 214.849 166.113 214.877C166.054 214.905 166.006 214.95 165.975 215.006C165.094 216.569 164.119 218.613 163.437 220.213C155.86 219.063 148.152 219.063 140.575 220.213C139.815 218.43 138.955 216.692 138 215.006C137.968 214.95 137.92 214.906 137.862 214.878C137.804 214.85 137.739 214.84 137.675 214.85C130.644 216.063 123.8 218.188 117.319 221.169C117.263 221.19 117.217 221.23 117.187 221.281C104.225 240.65 100.669 259.544 102.412 278.2C102.419 278.288 102.475 278.375 102.544 278.431C110.092 284.023 118.535 288.292 127.512 291.056C127.576 291.076 127.644 291.076 127.707 291.054C127.77 291.033 127.824 290.992 127.862 290.938C129.787 288.313 131.5 285.544 132.975 282.631C133.006 282.571 133.016 282.503 133.005 282.437C132.994 282.37 132.961 282.309 132.912 282.263C132.88 282.232 132.842 282.209 132.8 282.194C130.107 281.159 127.499 279.916 125 278.475C124.93 278.435 124.878 278.371 124.855 278.294C124.832 278.217 124.839 278.134 124.875 278.063C124.896 278.016 124.928 277.975 124.969 277.944C125.494 277.55 126.019 277.138 126.519 276.725C126.563 276.689 126.616 276.667 126.672 276.659C126.728 276.651 126.785 276.659 126.837 276.681C143.206 284.156 160.925 284.156 177.094 276.681C177.148 276.658 177.207 276.65 177.265 276.657C177.324 276.665 177.379 276.688 177.425 276.725C177.925 277.138 178.45 277.55 178.975 277.944C179.018 277.975 179.052 278.016 179.074 278.064C179.097 278.111 179.108 278.163 179.105 278.216C179.103 278.269 179.087 278.32 179.06 278.365C179.033 278.41 178.995 278.448 178.95 278.475C176.456 279.929 173.845 281.171 171.144 282.188C171.101 282.203 171.062 282.228 171.029 282.26C170.997 282.293 170.972 282.332 170.956 282.375C170.942 282.417 170.936 282.461 170.939 282.505C170.942 282.549 170.955 282.592 170.975 282.631C172.475 285.538 174.194 288.313 176.081 290.938C176.119 290.992 176.174 291.033 176.237 291.054C176.3 291.076 176.368 291.076 176.431 291.056C185.424 288.3 193.88 284.031 201.437 278.431C201.475 278.405 201.507 278.371 201.53 278.331C201.552 278.291 201.566 278.246 201.569 278.2C203.656 256.631 198.075 237.894 186.781 221.288C186.77 221.26 186.753 221.235 186.731 221.215C186.71 221.194 186.684 221.179 186.656 221.169ZM135.419 266.838C130.487 266.838 126.431 262.313 126.431 256.763C126.431 251.206 130.412 246.681 135.419 246.681C140.462 246.681 144.481 251.244 144.406 256.763C144.406 262.313 140.425 266.838 135.419 266.838ZM168.644 266.838C163.719 266.838 159.656 262.313 159.656 256.763C159.656 251.206 163.637 246.681 168.644 246.681C173.687 246.681 177.712 251.244 177.631 256.763C177.631 262.313 173.687 266.838 168.644 266.838Z"
            fill="#FFFFFF" />
    </g>
    <defs>
        <clipPath id="clip0_0_1">
            <rect width="100" height="100" fill="#FFFFFF" transform="translate(102 203)" />
        </clipPath>
    </defs>
</svg>